<svg xmlns="http://www.w3.org/2000/svg" xmlns:xlink="http://www.w3.org/1999/xlink" width="262.134" height="231.229" viewBox="0 0 262.134 231.229"><defs><style>.a{fill:#fff;}.b{fill:#aa2526;}.c{fill:#ee4748;}.d{fill:none;stroke:#aa2526;stroke-linecap:round;stroke-linejoin:round;stroke-width:0.5px;}.e{filter:url(#a);}</style><filter id="a" x="0" y="0" width="262.134" height="231.229" filterUnits="userSpaceOnUse"><feOffset dx="7" dy="7" input="SourceAlpha"/><feGaussianBlur stdDeviation="5.5" result="b"/><feFlood flood-opacity="0.51"/><feComposite operator="in" in2="b"/><feComposite in="SourceGraphic"/></filter></defs><g transform="translate(-283.821 -180.158)"><g class="e" transform="matrix(1, 0, 0, 1, 283.82, 180.16)"><path class="a" d="M512.52,361.2l6.583-5.31a9.106,9.106,0,0,0,1.747-12.223l-.038-.054a9.116,9.116,0,0,0-3.513-3,5.387,5.387,0,0,1-3.034-4.847V306.94a9.04,9.04,0,0,0-14-7.558l-.1.066a5.388,5.388,0,0,1-5.952-.017c-.293-.195-.523-.337-.724-.445a9.021,9.021,0,0,0-3.166-1.009,5.387,5.387,0,0,1-1.718-10.171c1.29-.64,2.582-1.291,3.879-1.963.221-.114.433-.237.64-.369,2.2-1.409,21.29-14.916,12.557-54.373a8.368,8.368,0,0,0-.286-.963c-.019-.053-.037-.107-.055-.161-2.979-9.347-16.7-12.685-26.765-14.383a164.876,164.876,0,0,0-18.8-1.967,5.388,5.388,0,0,1-5.117-5.5,12.953,12.953,0,0,0-.388-3.413c0-.013-.022-.093-.025-.106a12.971,12.971,0,0,0-.6-1.78c-3.1-7.338-11.83-9.45-14.432-9.922l-.136-.026c-45.8-9.542-78.037,3.9-97.024,16.859s-28.824,28.019-30.6,30.9c-.039.064-.08.127-.122.189a21.364,21.364,0,0,0-3.861,10.43c-.021.259-.031.474-.031.692v.175c0,.313,0,.55.008.786.1,6.056,1.212,26.595,11.515,39.409a5.386,5.386,0,0,1-.051,6.815,9.051,9.051,0,0,0-2.08,5.764v10.364a5.386,5.386,0,0,1-7.38,5.005,8.036,8.036,0,0,0-7.832,1.034l-.642.481a8.051,8.051,0,0,0-2.809,9.094,5.384,5.384,0,0,1-1.2,5.476,8.8,8.8,0,0,0-1.629,2.39,21.863,21.863,0,0,0-2.026,9.25,21.283,21.283,0,0,0,10.824,18.635,5.39,5.39,0,0,1,2.649,5.442,8.182,8.182,0,0,0-.1,1.159v6.471a8.091,8.091,0,0,0,8.081,8.081h10.739a5.243,5.243,0,0,1,.557.029,10.078,10.078,0,0,0,2.386,0,5.3,5.3,0,0,1,.544-.027H402.12a5.4,5.4,0,0,1,.553.028,10.085,10.085,0,0,0,2.39,0,5.283,5.283,0,0,1,.547-.028h35.213a5.258,5.258,0,0,1,.557.029,9.975,9.975,0,0,0,2.379,0,5.285,5.285,0,0,1,.544-.027h58.452a8.131,8.131,0,0,0,7.987-6.835,5.375,5.375,0,0,1,.888-2.237,8.028,8.028,0,0,0,1.421-4.579v-.9a8.009,8.009,0,0,0-1.522-4.7A5.388,5.388,0,0,1,512.52,361.2Z" transform="translate(-283.82 -180.16)"/></g><g transform="translate(315.508 197.712)"><path class="b" d="M462.555,208.507l.714,16.426H452.916l-1.456-1.294,1.456-5.177,2.829-5.015Z" transform="translate(-331.65 -199.636)"/><path class="b" d="M481.681,237.757l-45.5,1.3-65.693,4.1-34.5,6.873-17.929,6.831s0,30.277,14.55,39.738c0,0,70.366,32.7,158.693-13.026,0,0,16.787-10.733,9.022-45.82" transform="translate(-318.032 -202.621)"/><path class="c" d="M485.941,246.04c39.183-16.949-10.514-25.249-42.119-23.4-5.254.308,3.6-9.438,3.6-9.438,6.321-9.163-7.265-11.454-7.265-11.454-83.458-17.5-119.441,44.29-119.441,44.29-13.2,18.984,24.242,27.137,68.789,22.909C389.5,268.948,434.919,268.111,485.941,246.04Z" transform="translate(-318.03 -198.627)"/><path class="b" d="M335.781,245.627s32.314-50.779,92.326-36.93c0,0,23.081,4.616,0,13.849S321.932,268.708,335.781,245.627Z" transform="translate(-319.684 -199.411)"/><path class="b" d="M354.763,258.782s33.416-11.47,47.265-16.086,35.828,11.47,35.828,11.47,9.232,4.616-13.85,9.233C424.007,263.4,322.45,272.63,354.763,258.782Z" transform="translate(-321.132 -203.04)"/><path class="b" d="M434.089,234.685c18.465-4.616,18.44-2.078,36.906-2.078,0,0,41.571,2.078,27.722,11.31,0,0-32.314,13.849-41.546,9.233C457.17,253.15,420.24,239.3,434.089,234.685Z" transform="translate(-329.559 -202.025)"/><path class="b" d="M462.114,212.249" transform="translate(-332.737 -200.018)"/></g><g transform="translate(301.402 303.944)"><g transform="translate(0 0)"><path class="b" d="M305.1,354.754a12.779,12.779,0,0,0-.57,3.563c0,5.484,4.2,9.527,10.546,9.8,2.851.206,10.761-.617,10.761-7.607v-8.817a.955.955,0,0,0-1.027-.955c-.9.073-1.757.109-2.536.109a17.306,17.306,0,0,1-2.066-.137c-7.7-.48-11.972-6.579-13.469-9.458l.642-.48c2.065,1.988,5.059,2.6,8.551,2.6a90.606,90.606,0,0,0,9.046-.734.959.959,0,0,0,.859-.953V317.9a.959.959,0,0,1,1.492-.8l4.638,3.1a.958.958,0,0,1,.426.8v20.3a.962.962,0,0,0,.918.956,23.73,23.73,0,0,1,5.159.768c.035.01.07.022.1.034a17.33,17.33,0,0,1,2.27.989.955.955,0,0,0,1.384-.859V323.228a.959.959,0,0,1,.959-.959h4.709a.959.959,0,0,1,.959.959v38.928c0,5.783.633,13.119,5.173,14.164a1.106,1.106,0,0,0,.195.03,9.035,9.035,0,0,0,3.184-.624l.569,1.028a8.8,8.8,0,0,1-4.275,1.713c-7.7.343-11.473-6.647-11.473-16.037V351.57a.957.957,0,0,0-.521-.852l-.448-.231a1.046,1.046,0,0,0-.2-.08,18.764,18.764,0,0,0-4.6-.451c-1,0-2.053.042-3.144.093a.965.965,0,0,0-.919.959v5.184c0,12.406-9.834,18.5-16.674,18.3a13.487,13.487,0,0,1-13.4-13.5,13.884,13.884,0,0,1,1.277-5.854.95.95,0,0,1,1.138-.492Z" transform="translate(-302.321 -316.935)"/><path class="b" d="M377.848,332.721a6.261,6.261,0,0,1,1,3.838,11.28,11.28,0,0,1-1.14,5.072,7.615,7.615,0,0,1-1.029,1.423.954.954,0,0,0,.712,1.591h0a.959.959,0,0,1,.959.959V357.6c.136,4.139.928,7.017,3.252,7.068a.933.933,0,0,0,.558-.192l2.591-1.906a.959.959,0,0,1,1.356.226l.074.105a.959.959,0,0,1-.183,1.29l-7.17,5.835a.957.957,0,0,1-1.036.119,10,10,0,0,1-4.339-4.246.954.954,0,0,0-1.47-.271L366.995,370a.943.943,0,0,1-1.05.144c-3.233-1.675-6.411-5.494-6.411-11.514v-3.084c0-13.364,17.032-15.352,17.53-22.616Zm-6.128,16.086a.961.961,0,0,0-1.554-.755c-2.228,1.764-4.075,3.931-4.075,7.285v3.25c0,.026,0,.053,0,.079.207,3.269,1.167,5.269,3.117,5.548a.922.922,0,0,0,.671-.191l1.8-1.343a.954.954,0,0,0,.366-.929,25.149,25.149,0,0,1-.322-4.152Z" transform="translate(-308.161 -318.547)"/><path class="b" d="M395.745,319.362a.959.959,0,0,1,1.484.8v35.3c0,4.478.987,7.753,3.466,7.821a.916.916,0,0,0,.56-.191l2.591-1.905a.959.959,0,0,1,1.356.226l.071.1a.959.959,0,0,1-.186,1.292l-7.241,5.842a.96.96,0,0,1-1.028.119c-4.221-2.154-5.86-6.439-5.86-12.552v-33.2a.959.959,0,0,1,.433-.8Z" transform="translate(-311.368 -317.167)"/><path class="b" d="M426.253,332.721a6.266,6.266,0,0,1,1,3.838,11.279,11.279,0,0,1-1.14,5.072,7.569,7.569,0,0,1-1.029,1.423.954.954,0,0,0,.713,1.591h0a.959.959,0,0,1,.958.959V357.6c.136,4.139.928,7.017,3.252,7.068a.931.931,0,0,0,.559-.192l2.592-1.906a.959.959,0,0,1,1.356.226l.073.105a.959.959,0,0,1-.183,1.29l-7.17,5.835a.955.955,0,0,1-1.035.119,10,10,0,0,1-4.34-4.246.953.953,0,0,0-1.47-.271L415.4,370a.944.944,0,0,1-1.05.144c-3.234-1.675-6.412-5.494-6.412-11.514v-3.084c0-13.364,17.032-15.352,17.531-22.616Zm-6.129,16.086a.96.96,0,0,0-1.553-.755c-2.228,1.764-4.076,3.931-4.076,7.285v3.25c0,.026,0,.053,0,.079.207,3.269,1.167,5.269,3.116,5.548a.922.922,0,0,0,.671-.191l1.8-1.343a.957.957,0,0,0,.366-.929,25.142,25.142,0,0,1-.322-4.152Z" transform="translate(-313.101 -318.547)"/><path class="b" d="M444.149,319.362a.959.959,0,0,1,1.484.8v35.3c0,4.478.987,7.753,3.466,7.821a.914.914,0,0,0,.56-.191l2.591-1.905a.959.959,0,0,1,1.356.226l.071.1a.958.958,0,0,1-.186,1.292l-7.241,5.842a.958.958,0,0,1-1.027.119c-4.221-2.154-5.861-6.439-5.861-12.552v-33.2a.958.958,0,0,1,.433-.8Z" transform="translate(-316.309 -317.167)"/><path class="b" d="M456.908,377.723V340.136a.959.959,0,0,0-.958-.959h-.791a.959.959,0,0,1-.958-.959v-2.263a.958.958,0,0,1,.958-.958h.791a.959.959,0,0,0,.958-.959v-2.88c0-6.1,2.351-10.568,6.176-12.322a.95.95,0,0,1,.971.129l5.816,4.52a.958.958,0,0,1,.142,1.378l-.1.115a.958.958,0,0,1-1.236.193l-1.494-.929a.938.938,0,0,0-.5-.151c-2.508.033-3.505,3.32-3.505,7.822v2.125a.959.959,0,0,0,.958.959h5.545a.959.959,0,0,1,.8,1.48l-1.466,2.263a.958.958,0,0,1-.8.437h-4.078a.959.959,0,0,0-.958.959v40.442a.959.959,0,0,1-1.484.8l-4.354-2.854A.959.959,0,0,1,456.908,377.723Z" transform="translate(-317.823 -317.121)"/><path class="b" d="M481.484,370.776a.956.956,0,0,1-1.036.128c-4.216-2.156-5.854-6.439-5.854-12.549V344.066a.96.96,0,0,1,.429-.8l4.5-2.978a.959.959,0,0,1,1.488.8V357.6c0,4.473.787,7.745,3.181,7.821a.908.908,0,0,0,.558-.191l1.686-1.239a.948.948,0,0,0,.367-.949,25.755,25.755,0,0,1-.377-4.687V344.066a.96.96,0,0,1,.429-.8l4.5-2.978a.959.959,0,0,1,1.489.8V357.6c0,4.477.789,7.752,3.252,7.821a.919.919,0,0,0,.56-.191l2.166-1.593a.958.958,0,0,1,1.508.589l.029.145a.96.96,0,0,1-.334.926l-6.713,5.49a.955.955,0,0,1-1.022.128,9.1,9.1,0,0,1-4.152-4.126.954.954,0,0,0-1.458-.305Z" transform="translate(-319.905 -319.302)"/><path class="b" d="M510.329,319.362a.959.959,0,0,1,1.484.8v35.3c0,4.478.987,7.753,3.466,7.821a.916.916,0,0,0,.559-.191l2.591-1.905a.959.959,0,0,1,1.356.226l.071.1a.959.959,0,0,1-.186,1.292l-7.241,5.842a.96.96,0,0,1-1.028.119c-4.221-2.154-5.86-6.439-5.86-12.552v-33.2a.958.958,0,0,1,.433-.8Z" transform="translate(-323.064 -317.167)"/><path class="b" d="M528.182,319.362a.959.959,0,0,1,1.485.8v35.3c0,4.478.986,7.753,3.465,7.821a.917.917,0,0,0,.56-.191l2.591-1.905a.959.959,0,0,1,1.356.226l.071.1a.958.958,0,0,1-.186,1.292l-7.241,5.842a.958.958,0,0,1-1.027.119c-4.221-2.154-5.861-6.439-5.861-12.552v-33.2a.959.959,0,0,1,.433-.8Z" transform="translate(-324.886 -317.167)"/></g></g><g transform="translate(314.775 373.136)"><path class="c" d="M321.891,395h-3.629v1.883h2.845v.9h-2.845v2.785h-1.049V394.1h4.677Z" transform="translate(-317.214 -394.004)"/><path class="c" d="M330.791,393.993a3.181,3.181,0,0,1,1.628.4,2.691,2.691,0,0,1,1.059,1.148,4.457,4.457,0,0,1,0,3.568,2.683,2.683,0,0,1-1.059,1.148,3.475,3.475,0,0,1-3.246,0,2.684,2.684,0,0,1-1.06-1.148,4.468,4.468,0,0,1,0-3.568,2.692,2.692,0,0,1,1.06-1.148A3.153,3.153,0,0,1,330.791,393.993Zm0,.912a1.871,1.871,0,0,0-1.045.284,1.835,1.835,0,0,0-.672.824,3.772,3.772,0,0,0,0,2.623,1.833,1.833,0,0,0,.672.829,1.871,1.871,0,0,0,1.045.284,1.893,1.893,0,0,0,1.054-.284,1.845,1.845,0,0,0,.672-.829,3.772,3.772,0,0,0,0-2.623,1.846,1.846,0,0,0-.672-.824A1.894,1.894,0,0,0,330.791,394.905Z" transform="translate(-318.289 -393.993)"/><path class="c" d="M343.288,394.1a2.469,2.469,0,0,1,1.651.519,1.745,1.745,0,0,1,.612,1.4,1.706,1.706,0,0,1-.612,1.407,2.55,2.55,0,0,1-1.651.495l-.1.059h-1.5v2.589H340.65V394.1Zm-.079,3.01a1.441,1.441,0,0,0,.945-.26,1.176,1.176,0,0,0,0-1.593,1.42,1.42,0,0,0-.945-.265h-1.521v2.118Zm.617.216,2.108,3.246h-1.205l-1.8-2.835Z" transform="translate(-319.606 -394.004)"/><path class="c" d="M364.75,394.1v.9h-2.217v5.57h-1.049V395h-2.217v-.9Z" transform="translate(-321.506 -394.004)"/><path class="c" d="M372.187,394.1v6.471h-1.049V394.1Zm3.727,2.745v.9h-4.246v-.9Zm.528-2.745v6.471h-1.058V394.1Z" transform="translate(-322.718 -394.004)"/><path class="c" d="M383.543,400.574V394.1h4.687v.9h-3.638v1.863h2.845v.883h-2.845v1.922h3.776v.9Z" transform="translate(-323.984 -394.004)"/><path class="c" d="M403.822,399.672h3.569v.9h-4.618V394.1h1.049Z" transform="translate(-325.947 -394.004)"/><path class="c" d="M416.086,393.993a3.179,3.179,0,0,1,1.628.4,2.7,2.7,0,0,1,1.059,1.148,4.448,4.448,0,0,1,0,3.568,2.686,2.686,0,0,1-1.059,1.148,3.473,3.473,0,0,1-3.245,0,2.677,2.677,0,0,1-1.059-1.148,4.449,4.449,0,0,1,0-3.568,2.685,2.685,0,0,1,1.059-1.148A3.151,3.151,0,0,1,416.086,393.993Zm0,.912a1.865,1.865,0,0,0-1.043.284,1.824,1.824,0,0,0-.672.824,3.773,3.773,0,0,0,0,2.623,1.823,1.823,0,0,0,.672.829,1.865,1.865,0,0,0,1.043.284,1.889,1.889,0,0,0,1.054-.284,1.823,1.823,0,0,0,.672-.829,3.771,3.771,0,0,0,0-2.623,1.824,1.824,0,0,0-.672-.824A1.89,1.89,0,0,0,416.086,394.905Z" transform="translate(-326.995 -393.993)"/><path class="c" d="M430.96,394.1l-2.4,6.471h-1.226l-2.4-6.471h1.119l1.51,4.3.391,1.285.392-1.275,1.51-4.314Z" transform="translate(-328.209 -394.004)"/><path class="c" d="M437.324,400.574V394.1h4.686v.9h-3.637v1.863h2.843v.883h-2.843v1.922h3.774v.9Z" transform="translate(-329.474 -394.004)"/><path class="c" d="M459.2,393.993a3.18,3.18,0,0,1,1.627.4,2.7,2.7,0,0,1,1.06,1.148,4.467,4.467,0,0,1,0,3.568,2.689,2.689,0,0,1-1.06,1.148,3.475,3.475,0,0,1-3.246,0,2.683,2.683,0,0,1-1.06-1.148,4.467,4.467,0,0,1,0-3.568,2.691,2.691,0,0,1,1.06-1.148A3.156,3.156,0,0,1,459.2,393.993Zm0,.912a1.875,1.875,0,0,0-1.046.284,1.836,1.836,0,0,0-.672.824,3.789,3.789,0,0,0,0,2.623,1.835,1.835,0,0,0,.672.829,2.084,2.084,0,0,0,2.1,0,1.834,1.834,0,0,0,.672-.829,3.774,3.774,0,0,0,0-2.623,1.835,1.835,0,0,0-.672-.824A1.89,1.89,0,0,0,459.2,394.905Z" transform="translate(-331.395 -393.993)"/><path class="c" d="M473.733,395H470.1v1.883h2.845v.9H470.1v2.785h-1.049V394.1h4.677Z" transform="translate(-332.713 -394.004)"/><path class="c" d="M494.424,394.1v6.471h-.97v-3.746l.077-1.785h-.009l-1.971,5.531h-.874l-1.969-5.531H488.7l.079,1.785v3.746h-.971V394.1h1.56l1.3,3.744.451,1.54h.019l.461-1.54L492.9,394.1Z" transform="translate(-334.626 -394.004)"/><path class="c" d="M501.685,400.574V394.1h4.688v.9h-3.639v1.863h2.844v.883h-2.844v1.922h3.776v.9Z" transform="translate(-336.043 -394.004)"/><path class="c" d="M512.148,400.574l2.441-6.471h1.254l2.443,6.471h-1.108l-1.668-4.629-.293-.931h-.029l-.276.912-1.686,4.648Zm1.3-1.7v-.852h3.5v.852Z" transform="translate(-337.111 -394.004)"/><path class="c" d="M528.406,394.1v.9h-2.215v5.57h-1.049V395h-2.217v-.9Z" transform="translate(-338.211 -394.004)"/></g><ellipse class="c" cx="18.548" cy="4.312" rx="18.548" ry="4.312" transform="translate(368.885 222.278) rotate(-19.837)"/><line class="d" x2="65.558" transform="translate(368.499 363.497)"/><line class="d" x2="15.37" transform="translate(324.836 363.497)"/><line class="d" x2="53.869" transform="translate(451.101 363.497)"/></g></svg>